# xmcd CD database file
#
# Track frame offsets:
#	182
#	32692
#	46450
#	69002
#	93477
#	111720
#
# Disc length: 1802 seconds
#
# Revision: 1
# Processed by: cddbd v1.5.2PL0 Copyright (c) Steve Scherf et al.
# Submitted via: CDex 1.40Release
#
DISCID=4c070806
DTITLE=Robby Valentine - Live and Demos
DYEAR=1994
DGENRE=Rhythmic Soul
TTITLE0=I Believe In You (Demo)
TTITLE1=One Day (Demo)
TTITLE2=Heaven Is Callin' (Demo)
TTITLE3=The Magic Breeze (Live)
TTITLE4=Only Your Love (Live)
TTITLE5=No Turning Back (Live)
EXTD=YEAR: 1994 ID3G: 118
EXTT0=
EXTT1=
EXTT2=
EXTT3=
EXTT4=
EXTT5=
PLAYORDER=
